HIERARCHY
ROOT Hips
{
  OFFSET 3.13124 94.3669 -3.18751
  CHANNELS  6 Xposition Yposition Zposition Zrotation Xrotation Yrotation
  JOINT LeftUpLeg
  {
    OFFSET 8.64259 1.95398 -2.38835
    CHANNELS 3 Zrotation Xrotation Yrotation
    JOINT LeftLeg
    {
      OFFSET 43.7702 0 0
      CHANNELS 3 Zrotation Xrotation Yrotation
      JOINT LeftFoot
      {
        OFFSET 40.6238 0 0
        CHANNELS 3 Zrotation Xrotation Yrotation
        JOINT LeftToeBase
        {
          OFFSET 12.7242 0 0
          CHANNELS 3 Zrotation Xrotation Yrotation
          End Site
          {
            OFFSET 0 0 0
          }
        }
      }
    }
  }
  JOINT RightUpLeg
  {
    OFFSET -8.2249 1.95398 -2.59336
    CHANNELS 3 Zrotation Xrotation Yrotation
    JOINT RightLeg
    {
      OFFSET 43.5653 0 0
      CHANNELS 3 Zrotation Xrotation Yrotation
      JOINT RightFoot
      {
        OFFSET 40.6238 0 0
        CHANNELS 3 Zrotation Xrotation Yrotation
        JOINT RightToeBase
        {
          OFFSET 12.7242 0 0
          CHANNELS 3 Zrotation Xrotation Yrotation
          End Site
          {
            OFFSET 0 0 0
          }
        }
      }
    }
  }
  JOINT Spine
  {
    OFFSET 0.165834 0.87714 6.61349
    CHANNELS 3 Zrotation Xrotation Yrotation
    JOINT Spine1
    {
      OFFSET 7.38962 1.71661e-005 0
      CHANNELS 3 Zrotation Xrotation Yrotation
      JOINT Spine2
      {
        OFFSET 11.9445 1.14441e-005 0
        CHANNELS 3 Zrotation Xrotation Yrotation
        JOINT Spine3
        {
          OFFSET 14.7254 4.19617e-005 0
          CHANNELS 3 Zrotation Xrotation Yrotation
          JOINT Spine4
          {
            OFFSET 10.9679 0 0
            CHANNELS 3 Zrotation Xrotation Yrotation
            JOINT RightShoulder
            {
              OFFSET 2.46616 -1.6653 3.69651
              CHANNELS 3 Zrotation Xrotation Yrotation
              JOINT RightArm
              {
                OFFSET 13.0012 0 0
                CHANNELS 3 Zrotation Xrotation Yrotation
                JOINT RightForeArm
                {
                  OFFSET 28.7848 1.52588e-005 0
                  CHANNELS 3 Zrotation Xrotation Yrotation
                  JOINT RightHand
                  {
                    OFFSET 26.5688 1.52588e-005 0
                    CHANNELS 3 Zrotation Xrotation Yrotation
                    End Site
                    {
                      OFFSET 0 0 0
                    }
                  }
                }
              }
            }
            JOINT LeftShoulder
            {
              OFFSET 2.38034 -1.29275 -3.75231
              CHANNELS 3 Zrotation Xrotation Yrotation
              JOINT LeftArm
              {
                OFFSET 16.3182 6.10352e-005 0
                CHANNELS 3 Zrotation Xrotation Yrotation
                JOINT LeftForeArm
                {
                  OFFSET 27.0901 0 0
                  CHANNELS 3 Zrotation Xrotation Yrotation
                  JOINT LeftHand
                  {
                    OFFSET 24.5451 1.52588e-005 0
                    CHANNELS 3 Zrotation Xrotation Yrotation
                    End Site
                    {
                      OFFSET 0 0 0
                    }
                  }
                }
              }
            }
            JOINT Neck
            {
              OFFSET 5.0226 -0.0266342 0
              CHANNELS 3 Zrotation Xrotation Yrotation
              JOINT Head
              {
                OFFSET 6.69363 2.86102e-005 0
                CHANNELS 3 Zrotation Xrotation Yrotation
                End Site
                {
                  OFFSET 0 0 0
                }
              }
            }
          }
        }
      }
    }
  }
}
MOTION
Frames:	12
Frame Time:	0.0333333
-97.226 81.3172 -113.93 -23.6835 -83.0341 -17.6919 -179.916 13.0254 105.745 -50.0113 -32.5845 -1.74785 76.6223 -25.829 -10.8797 28.7808 4.18472e-006 -1.69883e-006 -178.386 44.4264 79.608 -41.0431 -29.2467 -1.95766 51.3735 2.54658 2.32315 28.7808 1.45203e-005 2.65999e-005 -2.56456 7.53686 -87.6475 11.9096 -3.66594 5.96708 0.229408 -3.40027 6.12197 -22.2754 -5.28803 4.59272 -2.26276 -5.28803 4.59273 101.804 -3.00341 -83.663 -26.8467 58.7744 50.8419 25.3223 -5.35867 -101.61 37.7413 -3.01883 -13.6813 -124.755 -81.8813 46.8438 -26.9685 -7.76529 -53.5613 1.50779 -74.4795 -2.06034 -3.78671 0.761097 -65.139 -9.75021 19.4668 32.1708 14.12 19.3055 13.7768 
-98.9981 82.8536 -111.743 -23.5705 -83.3768 -17.4423 -177.971 8.02344 107.286 -42.0046 -30.0623 -1.68183 73.7658 -23.814 -10.7847 28.7808 4.18472e-006 -1.69883e-006 -179.13 41.7668 81.2339 -39.7639 -29.1269 -1.92469 51.3708 1.11264 1.28947 28.7808 1.45203e-005 2.65999e-005 -2.83135 7.45357 -87.4394 12.0809 -4.1134 6.14763 0.401102 -3.83939 6.32195 -22.1127 -5.76892 4.63036 -2.1001 -5.76893 4.63038 102.352 -0.809205 -81.6119 -46.8873 70.1837 61.9118 31.4202 -9.8603 -105.861 28.5871 -1.38938 -10.3092 -127.381 -82.5024 44.3628 -32.8891 -2.67556 -50.458 1.64559 -45.3892 -2.56223 -0.77179 -1.01995 -64.9404 -6.26961 20.5765 34.9317 14.223 18.9515 11.7842 
-101.126 84.9227 -109.198 -23.7965 -83.9292 -17.3956 -175.235 2.56904 109.715 -32.7417 -26.4252 -1.50271 66.2882 -23.3927 -12.7066 28.7808 4.18472e-006 -1.69883e-006 179.597 35.5367 83.6861 -33.0002 -26.991 -1.69971 53.2646 1.07717 1.18102 28.7808 1.45203e-005 2.65999e-005 -2.92499 7.34069 -87.344 12.3101 -4.29684 6.28761 0.630156 -4.01652 6.46983 -21.8858 -5.98582 4.70884 -1.87312 -5.98583 4.70885 102.566 0.901092 -80.7297 -65.7486 79.8556 73.8544 36.7864 -15.4745 -109.631 11.0214 -0.403564 -8.84158 -123.705 -82.2041 48.0906 -35.3645 -0.284654 -50.6668 1.93602 -22.4075 -2.81945 -0.49505 -1.12824 -60.3329 -5.75419 20.9315 35.7472 14.3028 19.0102 11.2356 
-103.465 87.3945 -106.454 -14.6646 -84.1182 -7.90667 -171.499 -1.59131 113.324 -22.2511 -20.6503 -1.14617 54.0647 -22.6923 -15.9943 28.7808 4.18472e-006 -1.69883e-006 178.325 24.4539 86.0389 -15.7885 -22.8186 -1.29257 53.8029 3.04562 2.5515 28.7808 1.45203e-005 2.65999e-005 -2.85242 7.17192 -87.4149 12.6582 -4.23361 6.4141 0.977422 -3.94784 6.59337 -21.5325 -5.9634 4.84893 -1.51986 -5.96341 4.8489 102.435 0.758976 -81.266 -113.05 86.1402 116.188 41.8241 -20.8206 -111.584 15.1044 -0.782311 -10.5498 -119.292 -78.9568 51.4323 -34.7967 -0.427308 -50.7916 1.81578 -10.5658 -4.61269 -11.354 3.69672 -50.544 -5.60244 21.564 32.896 11.0859 19.7247 12.7503 
-105.878 89.6598 -103.65 8.71467 -83.8295 14.9704 -165.412 -5.45887 116.563 -6.87111 -14.4454 -0.822689 37.5272 -18.576 -18.1283 28.7808 4.18472e-006 -1.69883e-006 178.006 18.0645 86.6414 -6.85387 -19.7315 -1.09842 46.9399 3.52062 3.43487 28.7808 1.45203e-005 2.65999e-005 -2.70301 7.02992 -87.2259 12.9134 -4.04915 6.37373 1.2323 -3.76533 6.54494 -21.2726 -5.77537 4.86598 -1.25999 -5.77535 4.86597 102.73 0.968482 -80.0446 134.343 87.1161 -134.187 49.599 -26.3592 -110.733 27.2647 -1.43456 -10.7635 -113.681 -76.6217 56.6587 -30.4145 0.476295 -34.9346 0.410265 -2.41755 -45.5273 -25.4557 1.98515 -14.082 -7.55125 21.1106 33.5143 9.61895 19.5293 11.1642 
-108.035 90.7184 -101.007 33.6755 -81.7523 38.4525 -164.541 -3.118 117.316 -5.02633 -7.39296 -0.388623 30.4904 -13.6923 -15.616 28.7808 4.18472e-006 -1.69883e-006 177.824 14.6962 85.9197 -3.68576 -12.7038 -0.709176 47.9425 4.09483 3.69269 28.7808 1.45203e-005 2.65999e-005 -2.84254 6.88212 -86.808 13.1735 -3.88069 6.43729 1.49161 -3.59424 6.60103 -21.0058 -5.6337 4.97758 -0.993162 -5.63371 4.97759 102.915 -0.623435 -79.4212 71.4997 81.3948 -74.1564 42.51 -25.9585 -115.143 33.533 -1.38682 -9.52653 -107.48 -74.4786 62.8729 -27.9308 -1.12192 -36.8092 3.81129 0.741262 -52.2711 -36.1111 3.03876 -14.6592 -10.3012 20.4348 32.8969 8.30744 19.5765 10.675 
-109.983 91.7598 -98.5323 48.6699 -78.7711 51.2757 -169.144 3.65142 116.332 -18.5402 0.307741 0.0877327 30.6878 -10.7836 -12.5914 28.7808 4.18472e-006 -1.69883e-006 177.601 12.9842 84.6117 -3.80411 -5.56679 -0.319297 49.212 3.40856 3.06468 28.7808 1.45203e-005 2.65999e-005 -2.80288 6.82133 -86.0963 13.2137 -3.58135 6.30334 1.53171 -3.30107 6.45411 -20.9605 -5.30805 4.93972 -0.947846 -5.30806 4.93973 102.711 -1.21107 -80.2376 53.88 76.287 -55.3545 33.7947 -24.0455 -120.289 38.6 -0.23888 -5.66132 -102.575 -71.4421 67.614 -25.7702 -3.3069 -40.4444 3.40063 0.252426 -55.4914 -37.384 3.54052 -15.8506 -12.5186 19.4961 31.2158 6.01409 19.244 11.5396 
-110.86 91.9398 -96.9871 54.712 -75.258 56.6984 -179.031 15.059 116.836 -45.7606 9.04376 0.953158 29.5977 -12.0056 -14.1055 28.7808 4.18472e-006 -1.69883e-006 177.215 12.4661 84.3101 -3.98159 -1.83579 -0.120096 50.5121 2.5233 2.29266 28.7808 1.45203e-005 2.65999e-005 -2.52223 6.84089 -87.0104 13.2453 -3.26361 6.06153 1.56366 -2.99418 6.19864 -20.9266 -4.93253 4.80423 -0.913955 -4.93252 4.80424 102.248 -3.23652 -81.9899 41.9783 72.1306 -40.787 23.443 -19.1236 -124.771 43.6447 -0.716056 -6.79094 -97.6491 -67.7525 72.5401 -23.3893 -7.46695 -44.4537 1.67433 -1.03657 -55.0762 -34.8131 3.56665 -16.8905 -13.1402 19.0458 29.4237 3.47824 18.8229 11.828 
-110.96 91.6619 -95.6181 61.368 -73.9994 63.5491 172.413 22.6666 118.075 -71.7227 1.81019 1.18818 27.2472 -12.9136 -15.7144 28.7808 4.18472e-006 -1.69883e-006 177.074 11.9756 84.7849 -7.5788 0.00471536 -0.0323688 53.6151 1.09544 1.12806 28.7808 1.45203e-005 2.65999e-005 -2.0551 7.06689 -88.4587 12.8617 -2.69089 5.52886 1.18134 -2.44536 5.64147 -21.3094 -4.22664 4.4675 -1.29677 -4.22663 4.4675 101.424 -6.21875 -84.6697 35.1079 68.5987 -29.8263 16.1305 -15.44 -128.484 45.8857 0.259298 -4.41808 -93.4895 -64.5627 77.0101 -20.3481 -14.1189 -45.7784 -1.55171 -3.74979 -52.2355 -33.9887 4.57037 -20.7053 -13.5921 18.5315 28.7276 1.41226 18.2861 12.2978 
-110.396 90.538 -94.4468 65.718 -73.8766 69.2666 163.258 32.108 120.763 -97.2629 -2.42085 1.73361 14.7913 -9.60401 -15.6343 28.7808 4.18472e-006 -1.69883e-006 177.432 13.3977 86.0161 -15.0189 1.31762 0.0181925 58.3147 0.572189 0.656634 28.7808 1.45203e-005 2.65999e-005 -1.5636 7.24765 -90.0858 12.5256 -2.00324 4.56266 0.847873 -1.80072 4.64615 -21.6528 -3.28102 3.75136 -1.64021 -3.28101 3.75135 100.079 -11.1725 -88.302 28.4091 64.4134 -19.7236 13.7878 -13.5494 -128.599 46.4009 0.23878 -4.49784 -90.3097 -62.5767 80.7321 -17.3861 -19.8906 -40.4265 -12.5611 -12.2451 -54.6356 -25.1953 2.72692 -18.2511 -13.5283 18.0903 27.1077 -2.1779 17.5319 14.6462 
-109.975 89.7461 -92.9902 70.7298 -74.1763 75.6672 162.276 35.6125 115.449 -118.633 -3.15429 2.3911 32.3748 5.21999 4.39259 28.7808 4.18472e-006 -1.69883e-006 177.754 12.8183 87.5583 -19.2657 2.60581 0.0671862 61.2036 -0.0556518 0.212807 28.7808 1.45203e-005 2.65999e-005 -1.24867 7.41112 -91.2647 12.1831 -1.19236 3.44478 0.508023 -1.03969 3.49383 -22.0034 -2.17213 2.9279 -1.99071 -2.17213 2.92787 97.8843 -17.7564 -93.0432 21.3435 61.2255 -8.62426 9.58078 -9.58465 -126.926 40.4033 -1.04861 -7.74335 -87.8522 -62.0982 83.8821 -13.2578 -25.9613 -29.919 -15.5191 -12.9341 -58.3848 -18.4347 1.28893 -14.1516 -13.2713 17.3758 24.6462 -5.58729 16.3524 17.0652 
-109.601 90.0091 -91.0494 72.0688 -72.6898 76.8708 159.021 35.2365 116.065 -136.816 14.5716 3.9672 66.761 -7.16745 -3.92218 28.7808 4.18472e-006 -1.69883e-006 178.007 10.0024 87.5986 -16.6822 4.75968 0.196288 61.876 -0.961009 -0.383109 28.7808 1.45203e-005 2.65999e-005 -1.04583 7.42945 -91.0129 12.0985 -0.667346 2.5143 0.425187 -0.556077 2.5412 -22.0956 -1.39197 2.19775 -2.08293 -1.39198 2.19774 95.4639 -26.3684 -96.6351 15.289 62.2873 -0.717869 19.2807 -14.0414 -121.839 33.2496 1.8264 0.839599 -84.5354 -62.5243 88.3044 -7.92955 -31.1603 -17.7032 -15.7276 -11.9843 -60.8446 -16.7364 0.338119 -7.82699 -12.0703 16.2178 20.9479 -8.04355 14.5682 19.5661 
